<svg width="20" height="18" viewBox="0 0 20 18" fill="none" xmlns="http://www.w3.org/2000/svg">
<path fill-rule="evenodd" clip-rule="evenodd" d="M2 0C0.895432 0 0 0.895431 0 2L3.33387e-06 10.5L0 15C1.96477e-06 16.6569 1.34315 18 3 18H17C18.6569 18 20 16.6569 20 15V6C20 4.34315 18.6569 3 17 3L11.5 3L11.2361 3L10.2889 1.10557C9.95007 0.428004 9.25755 0 8.5 0H2ZM9 3L8.5 2L4 2L2 2V3H9ZM2 5L2 10.5L2 15C2 15.5523 2.44772 16 3 16L17 16C17.5523 16 18 15.5523 18 15V6C18 5.44771 17.5523 5 17 5H11.5L10.618 5L2 5ZM6 10.5C6 9.94771 6.44772 9.5 7 9.5H9V7.5C9 6.94771 9.44772 6.5 10 6.5C10.5523 6.5 11 6.94771 11 7.5V9.5H13C13.5523 9.5 14 9.94771 14 10.5C14 11.0523 13.5523 11.5 13 11.5H11V13.5C11 14.0523 10.5523 14.5 10 14.5C9.44772 14.5 9 14.0523 9 13.5V11.5H7C6.44772 11.5 6 11.0523 6 10.5Z" fill="#F9FAFB"/>
</svg>
