<svg width="20" height="16" viewBox="0 0 20 16" fill="none" xmlns="http://www.w3.org/2000/svg">
<path fill-rule="evenodd" clip-rule="evenodd" d="M9.32278 15.8806L10.0036 14L10.709 15.8716C10.2628 16.0396 9.77116 16.0428 9.32278 15.8806ZM8.54686 3.12301C7.76718 2.54309 6.73636 2 5.6101 2C3.08382 2 1.60101 4 2.09528 6.74519C2.94152 11.4452 10.0036 14 10.0036 14C9.32278 15.8806 9.32225 15.8804 9.32169 15.8802L9.31743 15.8787L9.30947 15.8758L9.28591 15.8671C9.26686 15.86 9.24116 15.8503 9.20924 15.8381C9.1454 15.8137 9.05653 15.779 8.94593 15.7342C8.72499 15.6445 8.41587 15.5135 8.04545 15.3419C7.30868 15.0004 6.30873 14.4885 5.26995 13.8078C3.30169 12.5181 0.703236 10.3044 0.126188 7.09947C-0.195988 5.31009 0.0901333 3.53226 1.11221 2.15279C2.15634 0.743544 3.78721 0 5.6101 0C7.48093 0 9.01727 0.946 9.94856 1.67693C9.96705 1.69144 9.9854 1.70595 10.0036 1.72045C10.0218 1.70595 10.0402 1.69144 10.0587 1.67693C10.99 0.946 12.5263 0 14.3971 0C18.5048 0 20.5658 3.99583 19.8659 7.17504C19.1781 10.2994 16.63 12.4889 14.6818 13.7859C13.6585 14.4672 12.6788 14.9822 11.9575 15.3268C11.595 15.4999 11.293 15.6323 11.0771 15.7231C10.9691 15.7685 10.8823 15.8036 10.82 15.8284C10.7888 15.8408 10.7637 15.8506 10.7451 15.8578L10.722 15.8666L10.7142 15.8696L10.71 15.8712C10.7095 15.8714 10.709 15.8716 10.0036 14C10.0036 14 16.8854 11.4083 17.912 6.74519C18.4062 4.5 16.9234 2 14.3971 2C13.2709 2 12.2401 2.54309 11.4604 3.12301C10.5672 3.78734 10.0036 4.5 10.0036 4.5C10.0036 4.5 9.44001 3.78734 8.54686 3.12301Z" fill="#F9FAFB"/>
</svg>
