<svg width="20" height="20" viewBox="0 0 20 20" fill="none" xmlns="http://www.w3.org/2000/svg">
<path fill-rule="evenodd" clip-rule="evenodd" d="M16 8C15.3681 8 14.7704 7.85346 14.239 7.5925L12.2723 10.0185L14.1377 12.4591C14.6939 12.1659 15.3276 12 16 12C18.2091 12 20 13.7909 20 16C20 18.2091 18.2091 20 16 20C13.7909 20 12 18.2091 12 16C12 15.1914 12.24 14.4388 12.6525 13.8095L10.5052 11H7.87398C7.42994 12.7252 5.86384 14 4 14C1.79086 14 0 12.2091 0 10C0 7.79086 1.79086 6 4 6C5.86384 6 7.42994 7.27477 7.87398 9H10.5234L12.7201 6.2902C12.2663 5.64145 12 4.85182 12 4C12 1.79086 13.7909 0 16 0C18.2091 0 20 1.79086 20 4C20 6.20914 18.2091 8 16 8ZM16 2C14.8954 2 14 2.89543 14 4C14 5.10457 14.8954 6 16 6C17.1046 6 18 5.10457 18 4C18 2.89543 17.1046 2 16 2ZM4 8C2.89543 8 2 8.89543 2 10C2 11.1046 2.89543 12 4 12C5.10457 12 6 11.1046 6 10C6 8.89543 5.10457 8 4 8ZM14 16C14 14.8954 14.8954 14 16 14C17.1046 14 18 14.8954 18 16C18 17.1046 17.1046 18 16 18C14.8954 18 14 17.1046 14 16Z" fill="#F9FAFB"/>
</svg>
