<svg width="16" height="14" viewBox="0 0 16 14" fill="none" xmlns="http://www.w3.org/2000/svg">
<path d="M11.8721 4.17574C11.5855 4.01198 11.2171 4.01198 10.8896 4.17574L8.59701 5.5267L7.04136 6.3864L4.78977 7.73736C4.5032 7.90111 4.13475 7.90111 3.80725 7.73736L2.04691 6.67296C1.76034 6.50921 1.55565 6.18171 1.55565 5.81326V3.76636C1.55565 3.43885 1.7194 3.11134 2.04691 2.90665L3.80725 1.8832C4.09382 1.71945 4.46226 1.71945 4.78977 1.8832L6.55011 2.94759C6.83667 3.11134 7.04136 3.43885 7.04136 3.80729V5.15825L8.59701 4.25761V2.86572C8.59701 2.53821 8.43326 2.21071 8.10576 2.00601L4.8307 0.0819209C4.54414 -0.0818317 4.17569 -0.0818317 3.84819 0.0819209L0.491258 2.04695C0.163753 2.21071 0 2.53821 0 2.86572V6.7139C0 7.04141 0.163753 7.36891 0.491258 7.5736L3.80725 9.4977C4.09382 9.66145 4.46226 9.66145 4.78977 9.4977L7.04136 8.18768L8.59701 7.28704L10.8486 5.97702C11.1352 5.81326 11.5036 5.81326 11.8311 5.97702L13.5915 7.00047C13.878 7.16422 14.0827 7.49173 14.0827 7.86017V9.90708C14.0827 10.2346 13.919 10.5621 13.5915 10.7668L11.8721 11.7902C11.5855 11.954 11.2171 11.954 10.8896 11.7902L9.12921 10.7668C8.84264 10.603 8.63795 10.2755 8.63795 9.90708V8.59706L7.0823 9.4977V10.8487C7.0823 11.1762 7.24606 11.5037 7.57356 11.7084L10.8896 13.6325C11.1761 13.7962 11.5446 13.7962 11.8721 13.6325L15.1881 11.7084C15.4746 11.5446 15.6793 11.2171 15.6793 10.8487V6.95953C15.6793 6.63203 15.5156 6.30452 15.1881 6.09983L11.8721 4.17574Z" fill="#8247E5"/>
</svg>
