<svg width="180" height="26" viewBox="0 0 180 26" fill="none" xmlns="http://www.w3.org/2000/svg">
<g clip-path="url(#clip0_921_5710)">
<path d="M37.0923 7.43247C38.1466 7.41234 39.1929 7.61992 40.1596 8.04101C41.1264 8.4621 41.9908 9.0868 42.6938 9.87241C44.1436 11.5669 44.9403 13.7232 44.9403 15.9528C44.9403 18.1824 44.1436 20.3387 42.6938 22.0332C41.9934 22.8209 41.13 23.4471 40.1635 23.8684C39.1969 24.2897 38.1504 24.496 37.0962 24.4731C35.5956 24.5243 34.13 24.013 32.9873 23.0395C32.9235 22.9825 32.8446 22.9451 32.7601 22.932C32.6756 22.9188 32.589 22.9304 32.5109 22.9653C32.4328 23.0002 32.3665 23.057 32.32 23.1287C32.2735 23.2005 32.2487 23.2842 32.2487 23.3697V23.6106C32.2492 23.6694 32.238 23.7277 32.2157 23.7822C32.1935 23.8366 32.1605 23.8861 32.1189 23.9277C32.0773 23.9693 32.0279 24.0022 31.9734 24.0244C31.9189 24.0467 31.8606 24.0579 31.8017 24.0574H28.4314C28.3726 24.0579 28.3142 24.0467 28.2598 24.0244C28.2053 24.0022 28.1558 23.9693 28.1142 23.9277C28.0726 23.8861 28.0397 23.8366 28.0174 23.7822C27.9951 23.7277 27.9839 23.6694 27.9844 23.6106V0.442939C27.9844 0.384446 27.996 0.326525 28.0185 0.272534C28.041 0.218542 28.074 0.169535 28.1155 0.128355C28.1571 0.0871752 28.2064 0.0546283 28.2607 0.0325995C28.3149 0.0105707 28.3729 -0.000496039 28.4314 1.7058e-05H31.8872C31.9454 1.7058e-05 32.0031 0.0114791 32.0568 0.0337378C32.1106 0.0559964 32.1594 0.0886017 32.2006 0.12973C32.2417 0.170859 32.2744 0.219698 32.2966 0.273435C32.3189 0.327172 32.3304 0.384775 32.3304 0.442939V8.48146C32.3303 8.56657 32.3547 8.64994 32.4007 8.72154C32.4467 8.79314 32.5125 8.84996 32.59 8.88521C32.6675 8.92046 32.7535 8.9326 32.8378 8.92026C32.922 8.90792 33.001 8.87158 33.0651 8.81559C34.1925 7.87679 35.6256 7.3846 37.0923 7.43247ZM36.2915 11.4925C35.7297 11.4736 35.1704 11.5767 34.6524 11.7947C34.1343 12.0127 33.6696 12.3404 33.2905 12.7552C32.54 13.6526 32.1288 14.7851 32.1288 15.9547C32.1288 17.1243 32.54 18.2568 33.2905 19.1542C33.6834 19.556 34.1525 19.8752 34.6706 20.0932C35.1886 20.3112 35.745 20.4234 36.3071 20.4234C36.8691 20.4234 37.4255 20.3112 37.9435 20.0932C38.4615 19.8752 38.9307 19.556 39.3236 19.1542C40.065 18.2594 40.4707 17.134 40.4707 15.9722C40.4707 14.8104 40.065 13.685 39.3236 12.7902C38.9428 12.3678 38.4739 12.034 37.95 11.8125C37.4261 11.5909 36.86 11.487 36.2915 11.5081V11.4925Z" fill="black"/>
<path d="M52.4159 24.0574H48.9679C48.8463 24.0574 48.7296 24.009 48.6436 23.9231C48.5576 23.8371 48.5093 23.7205 48.5093 23.5989V0.458478C48.5093 0.336888 48.5576 0.220244 48.6436 0.134266C48.7296 0.0482888 48.8463 0 48.9679 0H52.4159C52.5376 0 52.6543 0.0482888 52.7403 0.134266C52.8264 0.220244 52.8747 0.336888 52.8747 0.458478V23.5989C52.8747 23.7205 52.8264 23.8371 52.7403 23.9231C52.6543 24.009 52.5376 24.0574 52.4159 24.0574Z" fill="black"/>
<path d="M65.1935 7.43244C66.3489 7.39739 67.4996 7.59459 68.5774 8.01238C69.6551 8.43017 70.6379 9.06004 71.4675 9.8646C73.0692 11.4874 73.9672 13.6752 73.9672 15.9547C73.9672 18.2342 73.0692 20.422 71.4675 22.0448C69.7556 23.607 67.5213 24.4731 65.2032 24.4731C62.8851 24.4731 60.6507 23.607 58.9389 22.0448C57.3446 20.4181 56.4517 18.2317 56.4517 15.9547C56.4517 13.6776 57.3446 11.4913 58.9389 9.8646C59.7649 9.06061 60.7443 8.43097 61.8188 8.01314C62.8933 7.5953 64.041 7.3978 65.1935 7.43244ZM65.1935 11.4925C64.6212 11.4764 64.0519 11.5798 63.5219 11.7958C62.9918 12.0119 62.5126 12.336 62.1148 12.7474C61.3284 13.6309 60.894 14.7722 60.894 15.9547C60.894 17.1371 61.3284 18.2784 62.1148 19.1619C62.9411 19.9639 64.0475 20.4125 65.1993 20.4125C66.3511 20.4125 67.4576 19.9639 68.2839 19.1619C69.0702 18.2784 69.5046 17.1371 69.5046 15.9547C69.5046 14.7722 69.0702 13.6309 68.2839 12.7474C67.8831 12.3377 67.4013 12.0159 66.8692 11.8025C66.3372 11.5891 65.7664 11.4888 65.1935 11.508V11.4925Z" fill="black"/>
<path d="M85.1506 7.43245C86.4269 7.41011 87.6918 7.67571 88.8512 8.2095C89.792 8.65549 90.6299 9.29183 91.3119 10.0783C91.3555 10.1278 91.3889 10.1855 91.41 10.248C91.4311 10.3105 91.4395 10.3766 91.4348 10.4424C91.4301 10.5082 91.4123 10.5724 91.3825 10.6313C91.3528 10.6902 91.3116 10.7426 91.2613 10.7854L88.8357 12.8135C88.747 12.8914 88.633 12.9343 88.515 12.9343C88.3969 12.9343 88.283 12.8914 88.1943 12.8135C87.3548 11.9762 86.2199 11.5019 85.0339 11.4925C84.4917 11.4813 83.9533 11.5857 83.4546 11.7987C82.9559 12.0118 82.5084 12.3286 82.1418 12.728C81.3895 13.6344 80.9778 14.7751 80.9778 15.9527C80.9778 17.1304 81.3895 18.2711 82.1418 19.1775C82.506 19.5769 82.9515 19.8937 83.4483 20.1068C83.9451 20.3199 84.4817 20.4243 85.0223 20.413C86.231 20.4127 87.3906 19.9351 88.2487 19.0843C88.3368 19.0037 88.4519 18.9591 88.5713 18.9591C88.6908 18.9591 88.8059 19.0037 88.894 19.0843L91.2924 21.1318C91.3422 21.1748 91.3828 21.2273 91.4118 21.2863C91.4408 21.3453 91.4576 21.4095 91.4612 21.4752C91.4648 21.5408 91.4552 21.6065 91.4329 21.6683C91.4106 21.7301 91.376 21.7868 91.3313 21.835C89.7764 23.6041 87.7187 24.4873 85.1583 24.4847C82.5979 24.4822 80.5247 23.6805 78.9387 22.0798C77.3449 20.4739 76.548 18.4354 76.548 15.9644C76.5106 14.8363 76.7031 13.7124 77.1141 12.661C77.5251 11.6097 78.1459 10.6529 78.9387 9.84906C80.5169 8.24057 82.5876 7.43504 85.1506 7.43245Z" fill="black"/>
<path d="M107.584 24.0575H106.608C106.49 24.0575 106.376 24.0104 106.292 23.9266C106.208 23.8428 106.161 23.7292 106.161 23.6107V22.2702C105.582 22.9905 104.841 23.565 104 23.9476C103.158 24.3302 102.238 24.5102 101.314 24.4732C100.259 24.4967 99.2116 24.2906 98.2444 23.8693C97.2772 23.448 96.4132 22.8215 95.7123 22.0332C94.2669 20.3366 93.4731 18.1811 93.4731 15.9528C93.4731 13.7245 94.2669 11.5691 95.7123 9.87248C96.4138 9.08504 97.278 8.4591 98.2451 8.03785C99.2121 7.61661 100.259 7.41009 101.314 7.43254C102.24 7.3941 103.162 7.57546 104.005 7.96173C104.847 8.34801 105.586 8.92821 106.161 9.65488V8.31061C106.161 8.25263 106.172 8.1951 106.194 8.14139C106.215 8.08767 106.248 8.03882 106.289 7.99764C106.329 7.95646 106.378 7.92376 106.432 7.90145C106.485 7.87915 106.543 7.86768 106.601 7.86769H109.979C110.096 7.86769 110.209 7.91434 110.292 7.9974C110.375 8.08046 110.422 8.19314 110.422 8.31061V21.2212C110.424 21.5943 110.352 21.964 110.21 22.309C110.068 22.6541 109.859 22.9676 109.595 23.2313C109.331 23.4951 109.018 23.704 108.672 23.8458C108.327 23.9876 107.957 24.0595 107.584 24.0575ZM102.099 11.5081C101.532 11.4878 100.968 11.5916 100.445 11.8124C99.9228 12.0333 99.455 12.3657 99.0748 12.7864C98.329 13.6792 97.9206 14.8053 97.9206 15.9684C97.9206 17.1314 98.329 18.2576 99.0748 19.1504C99.454 19.5724 99.9216 19.9056 100.444 20.1266C100.967 20.3475 101.532 20.4506 102.099 20.4286C102.663 20.4485 103.224 20.3463 103.745 20.129C104.266 19.9118 104.733 19.5845 105.116 19.1698C105.866 18.2724 106.277 17.14 106.277 15.9703C106.277 14.8007 105.866 13.6682 105.116 12.7708C104.735 12.354 104.268 12.0251 103.747 11.807C103.226 11.589 102.663 11.487 102.099 11.5081Z" fill="black"/>
<path d="M126.604 12.3782C125.004 11.5553 123.238 11.1038 121.438 11.0573C120.796 11.0178 120.156 11.152 119.584 11.4458C119.39 11.5509 119.228 11.7071 119.115 11.8974C119.003 12.0877 118.945 12.305 118.946 12.5259C118.939 12.7359 119.005 12.9419 119.133 13.1087C119.293 13.2911 119.5 13.4256 119.732 13.4972C119.994 13.5932 120.263 13.6711 120.536 13.7303C120.793 13.7886 121.143 13.8468 121.59 13.9168L123.028 14.1344C126.669 14.6913 128.491 16.3062 128.494 18.9793C128.517 19.7579 128.349 20.5303 128.005 21.2292C127.66 21.9281 127.15 22.5322 126.519 22.9888C125.205 23.9809 123.383 24.4756 121.053 24.473C118.242 24.473 115.949 23.9109 114.177 22.7868C114.086 22.7276 114.02 22.6367 113.993 22.5317C113.966 22.4268 113.979 22.3155 114.029 22.2195L115.351 19.6825C115.379 19.6295 115.419 19.5828 115.466 19.5454C115.513 19.5081 115.568 19.4807 115.626 19.4651C115.684 19.4495 115.745 19.4458 115.804 19.4545C115.864 19.4631 115.921 19.4839 115.973 19.5154C117.523 20.4207 119.293 20.8818 121.088 20.8481C123.084 20.8481 124.08 20.3417 124.078 19.3289C124.073 19.1287 124.01 18.9341 123.898 18.7682C123.786 18.6022 123.628 18.4719 123.444 18.3926C122.794 18.0957 122.099 17.9093 121.388 17.8409L120.066 17.6583C116.334 17.1402 114.468 15.5032 114.468 12.7473C114.436 12.0015 114.584 11.2589 114.9 10.5825C115.216 9.90612 115.691 9.31592 116.284 8.86209C117.489 7.92445 119.163 7.45694 121.306 7.45953C123.653 7.43538 125.973 7.96799 128.074 9.01362L126.604 12.3782Z" fill="black"/>
<path d="M143.623 11.9472C143.598 12.003 143.562 12.0533 143.518 12.0953C143.474 12.1372 143.421 12.17 143.364 12.1916C143.307 12.2133 143.246 12.2235 143.185 12.2215C143.124 12.2196 143.064 12.2056 143.009 12.1803C141.526 11.4769 139.911 11.0943 138.27 11.0575C137.628 11.018 136.988 11.1522 136.416 11.446C136.221 11.5511 136.059 11.7073 135.947 11.8976C135.835 12.0879 135.776 12.3052 135.778 12.5261C135.771 12.7361 135.837 12.9421 135.965 13.1089C136.125 13.2913 136.332 13.4258 136.564 13.4974C136.826 13.5934 137.095 13.6713 137.368 13.7305C137.625 13.7888 137.975 13.847 138.422 13.917L139.86 14.1346C143.504 14.6915 145.325 16.3064 145.325 18.9795C145.348 19.7581 145.181 20.5305 144.836 21.2294C144.492 21.9283 143.982 22.5324 143.351 22.989C142.037 23.9811 140.215 24.4758 137.885 24.4732C135.081 24.4732 132.794 23.915 131.024 22.7987C130.929 22.7364 130.861 22.6409 130.833 22.5308C130.805 22.4208 130.819 22.3043 130.873 22.2042L132.175 19.706C132.202 19.6508 132.241 19.6017 132.288 19.5619C132.335 19.5221 132.389 19.4923 132.448 19.4745C132.507 19.4567 132.569 19.4511 132.631 19.4581C132.692 19.4652 132.751 19.4848 132.805 19.5156C134.355 20.4209 136.125 20.882 137.92 20.8483C139.916 20.8483 140.912 20.3419 140.91 19.3291C140.904 19.1289 140.842 18.9343 140.73 18.7684C140.617 18.6024 140.46 18.4721 140.276 18.3928C139.626 18.0959 138.931 17.9095 138.22 17.8411L136.898 17.6585C133.166 17.1404 131.3 15.5034 131.3 12.7475C131.269 12.0023 131.418 11.2606 131.733 10.5845C132.048 9.90846 132.521 9.31786 133.112 8.86229C134.325 7.92595 135.996 7.45973 138.138 7.45973C140.335 7.43451 142.51 7.89352 144.509 8.80405C144.617 8.85549 144.7 8.94668 144.741 9.05835C144.782 9.17002 144.779 9.29338 144.731 9.40234L143.623 11.9472Z" fill="black"/>
<path d="M155.903 7.43255C156.965 7.39517 158.022 7.58722 159.003 7.99556C159.984 8.4039 160.865 9.0189 161.586 9.79865C163.048 11.3735 163.779 13.4197 163.779 15.9373C163.779 16.3259 163.779 16.6677 163.74 16.9824C163.73 17.0982 163.677 17.2061 163.591 17.2846C163.505 17.363 163.393 17.4064 163.277 17.406H153.808C153.606 17.4071 153.408 17.463 153.235 17.5679C153.062 17.6727 152.921 17.8225 152.827 18.0013C152.733 18.18 152.689 18.381 152.7 18.5827C152.711 18.7844 152.777 18.9793 152.89 19.1465C153.097 19.4444 153.35 19.7068 153.641 19.9236C154.431 20.4943 155.387 20.788 156.362 20.7589C157.73 20.761 159.06 20.3024 160.136 19.4573C160.228 19.3902 160.341 19.3597 160.454 19.372C160.567 19.3842 160.671 19.4382 160.746 19.5234L162.69 21.6603C162.732 21.7056 162.765 21.7589 162.785 21.8171C162.806 21.8753 162.815 21.9371 162.812 21.9988C162.808 22.0605 162.792 22.1208 162.764 22.1761C162.737 22.2315 162.698 22.2807 162.651 22.3207C160.902 23.7505 158.72 24.4654 156.105 24.4654C153.622 24.4654 151.6 23.6884 150.037 22.1343C148.474 20.5802 147.697 18.5365 147.705 16.0034C147.705 13.4676 148.461 11.4046 149.975 9.8142C151.488 8.22385 153.464 7.42996 155.903 7.43255ZM155.872 11.1934C154.982 11.1481 154.109 11.4505 153.438 12.0365C153.242 12.2323 153.109 12.482 153.055 12.7538C153.002 13.0256 153.03 13.3073 153.138 13.5628C153.245 13.8182 153.426 14.0361 153.657 14.1884C153.889 14.3408 154.16 14.4208 154.437 14.4182H157.236C157.513 14.4197 157.784 14.3391 158.015 14.1868C158.246 14.0344 158.426 13.817 158.533 13.5621C158.641 13.3073 158.67 13.0263 158.618 12.7547C158.565 12.4832 158.434 12.2333 158.239 12.0365L158.212 12.0133C157.569 11.4442 156.729 11.1498 155.872 11.1934Z" fill="black"/>
<path d="M178.465 11.7451H173.512C173.452 11.7446 173.393 11.756 173.337 11.7786C173.281 11.8012 173.231 11.8346 173.188 11.8769C173.145 11.9191 173.112 11.9695 173.088 12.0249C173.065 12.0803 173.054 12.1397 173.054 12.1997V17.639C173.054 18.587 173.279 19.2825 173.722 19.7254C173.954 19.9506 174.229 20.1261 174.532 20.241C174.834 20.3559 175.156 20.4079 175.479 20.3937C176.409 20.346 177.312 20.0669 178.107 19.5817C178.162 19.5527 178.221 19.5351 178.283 19.5301C178.344 19.525 178.406 19.5324 178.465 19.5521C178.524 19.5717 178.577 19.6031 178.624 19.6442C178.67 19.6854 178.707 19.7355 178.733 19.7914L179.957 22.3946C180.005 22.4934 180.016 22.6063 179.986 22.7122C179.957 22.8181 179.89 22.9096 179.798 22.9696C178.295 23.9478 176.538 24.4638 174.744 24.4537C172.739 24.4537 171.225 23.9059 170.204 22.8103C169.183 21.7146 168.674 20.1075 168.676 17.9887V12.1609C168.676 12.0403 168.628 11.9247 168.543 11.8394C168.458 11.7542 168.342 11.7063 168.222 11.7063H166.006C165.946 11.7063 165.886 11.6944 165.831 11.6713C165.775 11.6482 165.725 11.6144 165.683 11.5718C165.641 11.5292 165.607 11.4786 165.585 11.423C165.562 11.3674 165.551 11.3078 165.551 11.2478V8.28338C165.551 8.16282 165.599 8.04721 165.684 7.96196C165.77 7.87671 165.885 7.82884 166.006 7.82884H168.222C168.342 7.82884 168.458 7.78091 168.543 7.69566C168.628 7.61041 168.676 7.49481 168.676 7.37425V3.48901C168.676 3.42932 168.688 3.3702 168.711 3.31505C168.734 3.2599 168.767 3.20981 168.81 3.1676C168.852 3.12539 168.902 3.09189 168.957 3.06905C169.012 3.0462 169.071 3.03442 169.131 3.03442H172.583C172.643 3.03442 172.702 3.0462 172.757 3.06905C172.812 3.09189 172.863 3.12539 172.905 3.1676C172.947 3.20981 172.98 3.2599 173.003 3.31505C173.026 3.3702 173.038 3.42932 173.038 3.48901V7.37425C173.038 7.43427 173.05 7.4937 173.073 7.54911C173.096 7.60452 173.13 7.65482 173.173 7.69708C173.215 7.73935 173.266 7.77274 173.321 7.79535C173.377 7.81797 173.437 7.82935 173.497 7.82884H178.449C178.57 7.82883 178.686 7.87659 178.772 7.96173C178.858 8.04687 178.907 8.16246 178.908 8.28338V11.2478C178.913 11.3099 178.906 11.3724 178.886 11.4316C178.866 11.4907 178.835 11.5453 178.793 11.5918C178.752 11.6383 178.701 11.6759 178.645 11.7023C178.588 11.7287 178.527 11.7432 178.465 11.7451Z" fill="black"/>
<path d="M16.7075 8.52808H8.35376V16.8774H16.7075V8.52808Z" fill="#FF6B64"/>
<path d="M8.35374 0.178711H0V8.52808H8.35374V0.178711Z" fill="#FF6B64"/>
<path d="M8.35374 16.8735H0V25.2229H8.35374V16.8735Z" fill="#FF6B64"/>
</g>
<defs>
<clipPath id="clip0_921_5710">
<rect width="180" height="25.2229" fill="white"/>
</clipPath>
</defs>
</svg>
