<svg width="24" height="24" viewBox="0 0 24 24" fill="none" xmlns="http://www.w3.org/2000/svg">
<path d="M11.175 0.75C16.8563 0.75 21.4875 5.38125 21.4875 11.0625C21.4875 13.575 20.5875 15.8625 19.0875 17.6625L23.2688 21.8438L21.9375 23.175L17.7563 18.9938C15.975 20.4938 13.6688 21.3937 11.1563 21.3937C5.47505 21.3937 0.8438 16.7625 0.8438 11.0812C0.8438 5.4 5.4938 0.75 11.175 0.75ZM11.175 19.5C15.825 19.5 19.6125 15.7125 19.6125 11.0625C19.6125 6.4125 15.825 2.625 11.175 2.625C6.52505 2.625 2.73755 6.4125 2.73755 11.0625C2.73755 15.7125 6.52505 19.5 11.175 19.5Z" fill="white"/>
</svg>
