<svg width="24" height="30" viewBox="0 0 24 30" fill="none" xmlns="http://www.w3.org/2000/svg">
<path fill-rule="evenodd" clip-rule="evenodd" d="M3.42983 14.4147C2.84934 13.8237 2.8579 12.8739 3.44894 12.2935C4.03998 11.713 4.98969 11.7215 5.57017 12.3126L10.5 17.332L10.5 1.5C10.5 0.671573 11.1716 0 12 0C12.8284 0 13.5 0.671573 13.5 1.5V17.332L18.4298 12.3126C19.0103 11.7215 19.96 11.713 20.5511 12.2935C21.1421 12.8739 21.1507 13.8237 20.5702 14.4147L13.0702 22.0511C12.7881 22.3382 12.4025 22.5 12 22.5C11.5975 22.5 11.2119 22.3382 10.9298 22.0511L3.42983 14.4147ZM1.5 27C0.671573 27 0 27.6716 0 28.5C0 29.3284 0.671573 30 1.5 30H22.5C23.3284 30 24 29.3284 24 28.5C24 27.6716 23.3284 27 22.5 27H1.5Z" fill="#FF6D3B"/>
</svg>
