<svg width="30" height="30" viewBox="0 0 30 30" fill="none" xmlns="http://www.w3.org/2000/svg">
<path fill-rule="evenodd" clip-rule="evenodd" d="M0 15C0 23.2843 6.71573 30 15 30C23.2843 30 30 23.2843 30 15C30 6.71573 23.2843 0 15 0C6.71573 0 0 6.71573 0 15ZM3 15C3 8.37258 8.37258 3 15 3C21.6274 3 27 8.37258 27 15C27 21.6274 21.6274 27 15 27C8.37258 27 3 21.6274 3 15ZM16.5 6C16.5 5.17157 15.8284 4.5 15 4.5C14.1716 4.5 13.5 5.17157 13.5 6V7.5C11.0147 7.5 9 9.51472 9 12C9 14.4853 11.0147 16.5 13.5 16.5H16.5C17.3284 16.5 18 17.1716 18 18C18 18.8284 17.3284 19.5 16.5 19.5H11.25C10.4216 19.5 9.75 20.1716 9.75 21C9.75 21.8284 10.4216 22.5 11.25 22.5H13.5V24C13.5 24.8284 14.1716 25.5 15 25.5C15.8284 25.5 16.5 24.8284 16.5 24V22.5C18.9853 22.5 21 20.4853 21 18C21 15.5147 18.9853 13.5 16.5 13.5H13.5C12.6716 13.5 12 12.8284 12 12C12 11.1716 12.6716 10.5 13.5 10.5H18.75C19.5784 10.5 20.25 9.82843 20.25 9C20.25 8.17157 19.5784 7.5 18.75 7.5H16.5V6Z" fill="#FF6D3B"/>
</svg>
