<svg width="30" height="30" viewBox="0 0 30 30" fill="none" xmlns="http://www.w3.org/2000/svg">
<path fill-rule="evenodd" clip-rule="evenodd" d="M0 11.25C0 17.4632 5.0368 22.5 11.25 22.5C13.8475 22.5 16.2393 21.6197 18.1435 20.1412C18.2152 20.293 18.3138 20.4352 18.4393 20.5607L27.4393 29.5607C28.0251 30.1464 28.9749 30.1464 29.5607 29.5607C30.1464 28.9749 30.1464 28.0251 29.5607 27.4393L20.5607 18.4393C20.4352 18.3138 20.293 18.2152 20.1412 18.1435C21.6197 16.2393 22.5 13.8475 22.5 11.25C22.5 5.0368 17.4632 0 11.25 0C5.0368 0 0 5.0368 0 11.25ZM3 11.25C3 6.69365 6.69365 3 11.25 3C15.8063 3 19.5 6.69365 19.5 11.25C19.5 15.8063 15.8063 19.5 11.25 19.5C6.69365 19.5 3 15.8063 3 11.25Z" fill="#FF6D3B"/>
</svg>
